# xmcd CD database file
#
# Track frame offsets:
#	150
#	19050
#	34745
#	53528
#	68141
#	90941
#	98625
#	110818
#	124740
#	140769
#	159358
#	176922
#
# Disc length: 2480 seconds
#
# Revision: 0
# Processed by: cddbd v1.5.2PL0 Copyright (c) Steve Scherf et al.
# Submitted via: CDex 1.51
#
DISCID=9a09ae0c
DTITLE=The Higgins - Real Thing
DYEAR=2008
DGENRE=Country
TTITLE0=Flower Child
TTITLE1=Sounds Of Summer
TTITLE2=16 Going On 30
TTITLE3=Real Thing
TTITLE4=Second Hand Car
TTITLE5=Factory Girl
TTITLE6=I Got No Time
TTITLE7=Rhythm Guitar
TTITLE8=My Way Of Thinking
TTITLE9=Wild Horse
TTITLE10=Hey Jamie
TTITLE11=Love In One Shot
EXTD=YEAR: 2008
EXTT0=
EXTT1=
EXTT2=
EXTT3=
EXTT4=
EXTT5=
EXTT6=
EXTT7=
EXTT8=
EXTT9=
EXTT10=
EXTT11=
PLAYORDER=
